<svg width="18" height="19" viewBox="0 0 18 19" fill="none" xmlns="http://www.w3.org/2000/svg">
<g clip-path="url(#clip0_144_956)">
<path d="M17.7289 9.21938L9.9664 1.46089L9.44609 0.940581C9.32754 0.822811 9.16722 0.756714 9.00011 0.756714C8.833 0.756714 8.67268 0.822811 8.55413 0.940581L0.271316 9.21938C0.149839 9.34038 0.053833 9.4845 -0.0110341 9.64321C-0.0759012 9.80193 -0.108315 9.97203 -0.106362 10.1435C-0.0983263 10.8506 0.49029 11.4151 1.19743 11.4151H2.05123V17.9582H15.949V11.4151H16.8209C17.1644 11.4151 17.4878 11.2805 17.7309 11.0375C17.8506 10.9181 17.9454 10.7763 18.0099 10.6201C18.0744 10.4639 18.1073 10.2964 18.1066 10.1274C18.1066 9.78589 17.972 9.46246 17.7289 9.21938ZM10.1251 16.5118H7.87511V12.4136H10.1251V16.5118ZM14.5026 9.96871V16.5118H11.4108V11.9314C11.4108 11.4875 11.0512 11.1279 10.6073 11.1279H7.39297C6.94899 11.1279 6.5894 11.4875 6.5894 11.9314V16.5118H3.49766V9.96871H1.56908L9.00212 2.5417L9.46618 3.00576L16.4331 9.96871H14.5026Z" fill="white"/>
</g>
<defs>
<clipPath id="clip0_144_956">
<rect width="18" height="18" fill="white" transform="translate(0 0.359985)"/>
</clipPath>
</defs>
</svg>
