<svg width="19" height="19" viewBox="0 0 19 19" fill="none" xmlns="http://www.w3.org/2000/svg">
<path d="M17.5275 6.16785L12.4268 5.42655L10.1467 0.804008C10.0844 0.677445 9.98195 0.57499 9.85539 0.512713C9.53798 0.356017 9.15227 0.486597 8.99356 0.804008L6.71343 5.42655L1.61276 6.16785C1.47213 6.18794 1.34356 6.25423 1.24512 6.35468C1.12612 6.47699 1.06054 6.64155 1.0628 6.81219C1.06506 6.98284 1.13497 7.1456 1.25718 7.26472L4.94758 10.8627L4.0757 15.9433C4.05526 16.0615 4.06834 16.183 4.11346 16.2942C4.15857 16.4053 4.23393 16.5016 4.33098 16.572C4.42802 16.6425 4.54287 16.6844 4.66251 16.6929C4.78215 16.7015 4.90178 16.6763 5.00785 16.6203L9.57012 14.2216L14.1324 16.6203C14.257 16.6866 14.4016 16.7087 14.5402 16.6846C14.8898 16.6243 15.1248 16.2928 15.0645 15.9433L14.1927 10.8627L17.8831 7.26472C17.9835 7.16629 18.0498 7.03771 18.0699 6.89709C18.1241 6.54553 17.8791 6.22008 17.5275 6.16785ZM12.6398 10.3565L13.365 14.5812L9.57012 12.5884L5.77526 14.5832L6.50048 10.3585L3.43084 7.36517L7.67369 6.74843L9.57012 2.90535L11.4666 6.74843L15.7094 7.36517L12.6398 10.3565Z" fill="white"/>
</svg>
