<svg width="18" height="17" viewBox="0 0 18 17" fill="none" xmlns="http://www.w3.org/2000/svg">
<path d="M16.4648 5.72144L11.3641 4.98014L9.08396 0.357597C9.02166 0.231034 8.91921 0.128579 8.79265 0.0663019C8.47524 -0.0903941 8.08953 0.0401859 7.93082 0.357597L5.65069 4.98014L0.550016 5.72144C0.409386 5.74153 0.280817 5.80782 0.182377 5.90827C0.0633765 6.03058 -0.00220347 6.19514 5.65335e-05 6.36578C0.00231653 6.53643 0.0722265 6.69919 0.194436 6.81831L3.88484 10.4163L3.01296 15.4969C2.99252 15.6151 3.0056 15.7366 3.05072 15.8478C3.09583 15.9589 3.17119 16.0552 3.26824 16.1256C3.36528 16.1961 3.48013 16.238 3.59977 16.2465C3.71941 16.2551 3.83904 16.2299 3.94511 16.1739L8.50738 13.7752L13.0697 16.1739C13.1943 16.2402 13.3389 16.2623 13.4775 16.2382C13.8271 16.1779 14.0621 15.8464 14.0018 15.4969L13.13 10.4163L16.8204 6.81831C16.9208 6.71988 16.9871 6.5913 17.0072 6.45068C17.0614 6.09912 16.8164 5.77367 16.4648 5.72144ZM11.5771 9.91009L12.3023 14.1348L8.50738 12.142L4.71252 14.1368L5.43774 9.91209L2.3681 6.91876L6.61095 6.30202L8.50738 2.45894L10.4039 6.30202L14.6467 6.91876L11.5771 9.91009Z" fill="white"/>
<path d="M8.5 1L10.4084 6.52786H16.584L11.5878 9.94427L13.4962 15.4721L8.5 12.0557L3.50383 15.4721L5.41219 9.94427L0.416019 6.52786H6.59163L8.5 1Z" fill="white"/>
<rect x="2" y="6" width="13" height="2" fill="white"/>
<rect x="4" y="10" width="9" height="3" fill="white"/>
</svg>
